<svg width="297" height="48" viewBox="0 0 297 48" fill="none" xmlns="http://www.w3.org/2000/svg">
<path d="M7.92902 10.3689C7.94808 10.0871 8.26061 8.97178 8.47786 8.43171C11.5117 -1.6142 25.2099 -2.88217 30.6678 5.7001C33.3091 9.93841 33.351 16.2548 31.4948 20.8218C30.7097 16.1452 29.6311 11.3042 26.1665 7.89557C20.5828 2.20536 12.476 4.58867 7.93284 10.3689H7.92902ZM44.0762 21.5184C47.3388 16.744 45.4102 9.67229 40.7489 6.46715C38.1914 4.69042 34.8984 4.02513 31.8874 4.72956C38.7365 7.26158 43.6798 14.075 44.0762 21.5184ZM47.6018 27.2751C46.5193 24.0543 43.3826 22.0115 39.9485 21.7415C38.3591 21.6162 36.1104 21.7571 33.9341 22.3128C28.6325 23.6669 23.7082 26.105 18.418 27.5256C13.8329 28.7544 9.19822 28.5353 6.14148 24.3322C2.18526 18.8885 7.14388 11.3864 7.14388 11.3864C2.65787 14.8342 1.01136 18.9629 0.252889 22.3676C-1.02011 28.0735 2.66169 33.5093 7.9557 35.65C15.9253 38.8708 22.4199 34.7734 30.6144 32.0848C33.4844 31.1456 37.3263 29.2006 40.3144 30.4959C43.1005 31.7052 42.7308 34.5855 41.1033 36.5657C39.2358 38.8473 35.9046 41.2776 35.9046 41.2776C35.9046 41.2776 38.5307 41.3206 43.0014 38.1977C46.1268 36.01 49.0958 31.7052 47.6018 27.2751ZM22.4771 43.8487C15.7233 43.2617 10.0253 39.27 10.0253 39.27C11.0544 42.0994 15.0982 46.8425 21.5776 47.8522C29.3452 49.0615 33.7931 42.4516 33.7931 42.4516C33.7931 42.4516 29.6349 44.471 22.4771 43.8487Z" fill="#E3E3E3"/>
<path d="M268.918 9.59985H275.369L292.874 33.7612V9.59985H296.901V38.4455H291.395L272.986 13.2158V38.4455H268.918V9.59985Z" fill="#E3E3E3"/>
<path d="M238.21 9.59985H263.522V13.5035H242.278V22.0503H263.522V25.9539H242.278V34.5419H263.522V38.4455H238.21V9.59985Z" fill="#E3E3E3"/>
<path d="M211.447 25.091V38.4455H207.379V9.59985H211.447V22.8721L229.116 9.59985H235.239L216.09 23.7761L235.362 38.4455H229.034L211.447 25.091Z" fill="#E3E3E3"/>
<path d="M186.109 38.4455C183.369 38.4455 180.931 37.8154 178.795 36.5553C176.658 35.2952 174.987 33.5694 173.782 31.3779C172.576 29.1864 171.974 26.7347 171.974 24.0227C171.974 21.2833 172.563 18.8179 173.741 16.6264C174.946 14.4349 176.617 12.7227 178.754 11.49C180.918 10.2299 183.369 9.59985 186.109 9.59985H190.341C192.56 9.59985 194.56 10.0245 196.34 10.8737C198.121 11.7229 199.559 12.9008 200.655 14.4075C201.751 15.9141 202.449 17.6125 202.751 19.5027H198.477C198.011 17.5851 197.025 16.0785 195.519 14.9827C194.012 13.887 192.094 13.3391 189.766 13.3391H186.438C184.328 13.3391 182.465 13.7911 180.849 14.6951C179.233 15.5717 177.973 16.8181 177.069 18.4343C176.192 20.0232 175.754 21.8723 175.754 23.9816C175.754 26.0909 176.192 27.9537 177.069 29.5699C177.973 31.1862 179.233 32.4463 180.849 33.3503C182.465 34.2543 184.328 34.7063 186.438 34.7063H189.766C192.231 34.7063 194.231 34.1036 195.765 32.8983C197.327 31.6655 198.285 29.9945 198.641 27.8852H202.792C202.49 29.9397 201.792 31.7751 200.696 33.3913C199.6 34.9802 198.148 36.2266 196.34 37.1306C194.56 38.0072 192.546 38.4455 190.3 38.4455H186.109Z" fill="#E3E3E3"/>
<path d="M151.888 9.59985H158.133L172.392 38.4455H167.707L163.516 30.063H146.299L142.067 38.4455H137.424L151.888 9.59985ZM161.667 26.2827L154.969 12.5173L148.148 26.2827H161.667Z" fill="#E3E3E3"/>
<path d="M107.226 9.59985H126.128C128.977 9.59985 131.128 10.2984 132.579 11.6955C134.031 13.0652 134.757 15.0101 134.757 17.5304C134.757 19.0644 134.442 20.4067 133.812 21.5572C133.182 22.6804 132.305 23.4474 131.182 23.8583C132.278 24.0227 133.114 24.4884 133.689 25.2554C134.264 25.995 134.552 26.9264 134.552 28.0496V38.4455H130.484V29.2412C130.484 28.3098 130.292 27.6113 129.908 27.1456C129.552 26.6525 128.826 26.4059 127.731 26.4059H111.294V38.4455H107.226V9.59985ZM125.758 22.5434C129.046 22.5434 130.689 21.0231 130.689 17.9824C130.689 16.4757 130.306 15.3525 129.539 14.6129C128.772 13.8459 127.484 13.4624 125.676 13.4624H111.294V22.5434H125.758Z" fill="#E3E3E3"/>
<path d="M85.9587 38.4455C83.2194 38.4455 80.7813 37.8154 78.6446 36.5553C76.5079 35.2952 74.8369 33.5694 73.6315 31.3779C72.4262 29.1864 71.8235 26.7347 71.8235 24.0227C71.8235 21.2833 72.4125 18.8179 73.5904 16.6264C74.7958 14.4349 76.4668 12.7227 78.6035 11.49C80.7676 10.2299 83.2194 9.59985 85.9587 9.59985H90.1911C92.41 9.59985 94.4097 10.0245 96.1903 10.8737C97.9709 11.7229 99.4091 12.9008 100.505 14.4075C101.601 15.9141 102.299 17.6125 102.6 19.5027H98.327C97.8613 17.5851 96.8752 16.0785 95.3685 14.9827C93.8618 13.887 91.9443 13.3391 89.6158 13.3391H86.2875C84.1781 13.3391 82.3154 13.7911 80.6991 14.6951C79.0829 15.5717 77.8228 16.8181 76.9188 18.4343C76.0422 20.0232 75.6039 21.8723 75.6039 23.9816C75.6039 26.0909 76.0422 27.9537 76.9188 29.5699C77.8228 31.1862 79.0829 32.4463 80.6991 33.3503C82.3154 34.2543 84.1781 34.7063 86.2875 34.7063H89.6158C92.0812 34.7063 94.081 34.1036 95.615 32.8983C97.1765 31.6655 98.1353 29.9945 98.4914 27.8852H102.642C102.34 29.9397 101.642 31.7751 100.546 33.3913C99.4502 34.9802 97.9983 36.2266 96.1903 37.1306C94.4097 38.0072 92.3963 38.4455 90.15 38.4455H85.9587Z" fill="#E3E3E3"/>
</svg>
